<svg width="888" height="100" xmlns="http://www.w3.org/2000/svg" xmlns:xlink="http://www.w3.org/1999/xlink">
  <defs>
    <rect id="a" width="888" height="100" rx="8"/>
  </defs>
  <g fill="none" fill-rule="evenodd">
    <mask id="b" fill="#fff">
      <use xlink:href="#a"/>
    </mask>
    <g mask="url(#b)">
      <g fill="#F5F5F5">
        <path d="M103.4-32l35.356 35.355-129.4 129.401L-26 97.401zM245.4-32.378l35.356 35.355-129.4 129.401L116 97.023zM386.4-32.378l35.356 35.355-129.4 129.401L257 97.023zM527.023-32.378l35.355 35.355-129.4 129.4-35.356-35.354zM669.023-32.378l35.355 35.355-129.4 129.4-35.356-35.354zM810.023-32.378l35.355 35.355-129.4 129.4-35.356-35.354zM950.4-32.378l35.356 35.355-129.4 129.401L821 97.023z"/>
      </g>
      <path fill="#D8D8D8" opacity=".525" d="M32.4-32L67.757 3.355l-129.4 129.401L-97 97.401zM174.4-32.378l35.356 35.355-129.4 129.401L45 97.023zM315.4-32.378l35.356 35.355-129.4 129.401L186 97.023zM456.023-32.378l35.355 35.355-129.4 129.4-35.356-35.354zM598.023-32.378l35.355 35.355-129.4 129.4-35.356-35.354zM739.023-32.378l35.355 35.355-129.4 129.4-35.356-35.354zM880.4-32.378l35.356 35.355-129.4 129.401L751 97.023z"/>
    </g>
    <rect stroke="#65B3AD" stroke-width="8" x="4" y="4" width="880" height="92" rx="8"/>
    <text font-family="Montserrat-Bold, Montserrat" font-size="31" font-weight="bold" fill="#2F2C33">
      <tspan x="29" y="61">Are you interested in the next version?</tspan>
    </text>
    <rect stroke="#65B3AD" stroke-width="8" x="792" y="4" width="92" height="92" rx="8"/>
    <g fill="#2F2C33">
      <path d="M852.235 48.657l-22.93-22.893a2.615 2.615 0 0 0-3.693 0l-1.847 1.843a2.605 2.605 0 0 0 0 3.688L843 50.5l-19.235 19.203a2.607 2.607 0 0 0 0 3.689l1.847 1.844a2.613 2.613 0 0 0 3.693 0l22.93-22.894a2.6 2.6 0 0 0 0-3.685z"/>
    </g>
  </g>
</svg>
